<?xml version="1.0" encoding="utf-8"?>
<!-- Generator: Adobe Illustrator 15.1.0, SVG Export Plug-In . SVG Version: 6.00 Build 0)  -->
<!DOCTYPE svg PUBLIC "-//W3C//DTD SVG 1.1//EN" "http://www.w3.org/Graphics/SVG/1.1/DTD/svg11.dtd">
<svg version="1.1" id="Layer_1" xmlns="http://www.w3.org/2000/svg" xmlns:xlink="http://www.w3.org/1999/xlink" x="0px" y="0px"
	 width="411.072px" height="70px" viewBox="0 0 411.072 70" enable-background="new 0 0 411.072 70" xml:space="preserve">
<g>
	<path fill="#6D6E71" d="M290.07,13.853c0,0-0.111-0.056-0.111-0.14V7.519c0,0,0.057-0.142,0.111-0.142h2.448
		c1.408,0,2.424,0.873,2.424,2.338c0,1.464-1.045,2.309-2.424,2.309h-1.688v1.661c0,0-0.055,0.141-0.11,0.141h-0.648L290.07,13.853
		L290.07,13.853z M290.829,8.222v3.013h1.661c0.929,0,1.577-0.563,1.577-1.493c0-0.929-0.648-1.52-1.577-1.52H290.829z"/>
	<path fill="#6D6E71" d="M300.036,11.657c0,1.521-1.014,2.31-2.25,2.31c-1.241,0-2.253-0.789-2.253-2.31
		c0-1.52,1.012-2.308,2.253-2.308C299.023,9.349,300.036,10.138,300.036,11.657z M297.786,10.165c-0.847,0-1.38,0.619-1.38,1.492
		s0.533,1.493,1.38,1.493c0.842,0,1.35-0.62,1.35-1.493S298.602,10.165,297.786,10.165z"/>
	<path fill="#6D6E71" d="M302.258,11.77c0.059,0.169,0.115,0.535,0.115,0.535h0.028c0,0,0.056-0.311,0.139-0.508l0.93-2.337h0.396
		l0.93,2.337c0.083,0.197,0.141,0.508,0.141,0.508h0.029c0,0,0.057-0.366,0.11-0.535l0.898-2.168c0,0,0.086-0.142,0.198-0.142h0.62
		c0,0,0.084,0.057,0.084,0.086c0,0.026,0,0.084,0,0.084l-1.717,4.223h-0.34l-0.93-2.364c-0.081-0.198-0.168-0.563-0.168-0.563
		s-0.083,0.365-0.167,0.563l-0.929,2.364h-0.34l-1.718-4.223c0,0,0-0.058,0-0.084c0-0.029,0-0.086,0.085-0.086h0.618
		c0,0,0.143,0,0.199,0.142l0.9,2.168H302.258z"/>
	<path fill="#6D6E71" d="M311.552,12.812c0,0,0.055,0.112,0.055,0.17c0,0.112-0.055,0.14-0.11,0.225
		c-0.451,0.45-1.042,0.761-1.858,0.761c-1.238,0-2.337-0.789-2.337-2.31c0-1.323,0.872-2.308,2.25-2.308
		c1.384,0,2.112,0.929,2.112,2.026c0,0.281-0.024,0.535-0.024,0.535h-3.466c0.086,0.731,0.675,1.239,1.437,1.239
		c0.535,0,0.958-0.141,1.351-0.507c0.058-0.056,0.086-0.113,0.199-0.113c0.085,0,0.111,0,0.17,0.085l0.196,0.226L311.552,12.812z
		 M308.229,11.206h2.591c-0.059-0.731-0.509-1.042-1.238-1.042C308.932,10.165,308.34,10.504,308.229,11.206z"/>
	<path fill="#6D6E71" d="M313.692,10.054l0.058-0.085c0.366-0.45,0.844-0.647,1.267-0.647c0.874,0,1.323,0.535,1.323,1.549v0.112
		c0,0-0.111,0.169-0.167,0.169h-0.537c0,0-0.167-0.112-0.167-0.169v-0.056c0-0.535-0.254-0.789-0.622-0.789
		c-0.508,0-0.983,0.422-1.183,1.014v2.505c0,0-0.11,0.169-0.167,0.169h-0.536c0,0-0.168-0.111-0.168-0.169V9.603
		c0,0,0.112-0.169,0.168-0.169h0.425c0,0,0.139,0.085,0.168,0.169l0.14,0.422h0.028L313.692,10.054z"/>
	<path fill="#6D6E71" d="M321.18,12.812c0,0,0.058,0.112,0.058,0.17c0,0.112-0.058,0.14-0.113,0.225
		c-0.451,0.45-1.042,0.761-1.858,0.761c-1.239,0-2.337-0.789-2.337-2.31c0-1.323,0.874-2.308,2.253-2.308
		c1.377,0,2.111,0.929,2.111,2.026c0,0.281-0.03,0.535-0.03,0.535h-3.46c0.084,0.731,0.673,1.239,1.435,1.239
		c0.535,0,0.958-0.141,1.353-0.507c0.056-0.056,0.084-0.113,0.197-0.113c0.083,0,0.112,0,0.17,0.085l0.196,0.226L321.18,12.812z
		 M317.859,11.206h2.59c-0.059-0.731-0.509-1.042-1.24-1.042C318.561,10.165,317.97,10.504,317.859,11.206z"/>
	<path fill="#6D6E71" d="M325.657,13.346l-0.083,0.085c-0.281,0.309-0.674,0.507-1.269,0.507c-0.985,0-2.001-0.761-2.001-2.311
		c0-1.35,0.848-2.308,2.087-2.308c0.509,0,0.9,0.14,1.183,0.366l0.055,0.056h0.058V6.927c0,0,0.114-0.169,0.173-0.169h0.531
		c0,0,0.167,0.112,0.167,0.169v6.729c0,0-0.109,0.169-0.167,0.169h-0.423c0,0-0.141-0.085-0.167-0.169l-0.144-0.337V13.346
		L325.657,13.346z M324.42,13.149c0.591,0,0.957-0.31,1.267-0.62v-1.52c-0.226-0.535-0.676-0.846-1.212-0.846
		c-0.729,0-1.267,0.593-1.267,1.493C323.208,12.559,323.744,13.149,324.42,13.149z"/>
	<path fill="#6D6E71" d="M330.808,9.911h0.059l0.087-0.084c0.28-0.28,0.757-0.479,1.265-0.479c1.239,0,1.943,0.958,1.943,2.309
		c0,1.577-0.986,2.309-2.057,2.309c-0.506,0-0.955-0.196-1.238-0.45l-0.059-0.057l-0.109,0.227c0,0-0.113,0.168-0.2,0.168h-0.421
		c0,0-0.168-0.113-0.168-0.168v-6.73c0,0,0.111-0.168,0.168-0.168h0.536c0,0,0.168,0.112,0.168,0.168v2.957L330.808,9.911
		L330.808,9.911z M332.133,10.164c-0.647,0-1.127,0.424-1.324,1.015v1.464c0.313,0.31,0.704,0.507,1.271,0.507
		c0.676,0,1.211-0.563,1.211-1.493S332.808,10.164,332.133,10.164z"/>
	<path fill="#6D6E71" d="M336.609,16.415c0,0-0.082,0.141-0.225,0.141h-0.647c0,0-0.086,0-0.086-0.084c0-0.057,0-0.113,0.057-0.168
		l0.93-2.506l-2.024-4.082c0,0-0.058-0.113-0.058-0.169c0-0.057,0.058-0.086,0.083-0.086h0.648c0.142,0,0.168,0,0.252,0.142
		l1.267,2.562c0.114,0.226,0.199,0.563,0.199,0.563l1.184-3.125c0,0,0.082-0.142,0.225-0.142h0.647c0,0,0.081,0,0.081,0.086
		c0,0.056,0,0.111-0.053,0.169l-2.535,6.7L336.609,16.415L336.609,16.415z"/>
	<path fill="none" stroke="#58595B" stroke-width="0.25" stroke-miterlimit="10" d="M279.763,4.516v60.969"/>
	<path fill="#939598" d="M347.841,58.562v-0.311c0,0,0.059-0.083,0.084-0.083h3.351c0,0,0.087,0.056,0.087,0.083v0.311
		c0,0-0.059,0.086-0.087,0.086h-1.407v3.266c0,0-0.026,0.084-0.082,0.084h-0.396c0,0-0.087-0.029-0.087-0.084v-3.266H347.9
		c0,0-0.087-0.059-0.087-0.086H347.841z"/>
	<path fill="#939598" d="M354.344,60.252v1.267h2.255c0,0,0.082,0.056,0.082,0.084v0.312c0,0-0.058,0.084-0.082,0.084h-2.732
		c0,0-0.084-0.028-0.084-0.084v-3.688c0,0,0.025-0.084,0.084-0.084h2.646c0,0,0.086,0.059,0.086,0.084v0.309
		c0,0-0.058,0.087-0.086,0.087h-2.198v1.125h2.03c0,0,0.081,0.058,0.081,0.086v0.31c0,0-0.055,0.084-0.081,0.084h-2.03
		L354.344,60.252z"/>
	<path fill="#939598" d="M362.004,59.632c0,0-0.085,0-0.085-0.113c-0.027-0.506-0.422-0.928-1.154-0.928
		c-0.761,0-1.351,0.563-1.351,1.491s0.59,1.491,1.351,1.491c0.732,0,1.127-0.364,1.154-0.872c0-0.085,0-0.11,0.113-0.11h0.336
		c0,0,0.087,0,0.087,0.053c0,0.763-0.618,1.41-1.69,1.41c-1.07,0-1.857-0.733-1.857-1.972c0-1.237,0.815-1.971,1.857-1.971
		c1.127,0,1.69,0.788,1.69,1.465c0,0.029,0,0.056-0.087,0.056h-0.336H362.004z"/>
	<path fill="#939598" d="M368.591,61.913c0,0-0.031,0.084-0.087,0.084h-0.394c0,0-0.083-0.029-0.083-0.084v-1.492h-2.479v1.492
		c0,0-0.028,0.084-0.084,0.084h-0.395c0,0-0.082-0.029-0.082-0.084v-3.689c0,0,0.026-0.082,0.082-0.082h0.395
		c0,0,0.084,0.027,0.084,0.082v1.718h2.479v-1.718c0,0,0.024-0.082,0.083-0.082h0.394c0,0,0.087,0.027,0.087,0.082V61.913z"/>
	<path fill="#939598" d="M372.195,59.378c-0.141-0.142-0.227-0.31-0.227-0.31v2.874c0,0-0.029,0.081-0.086,0.081h-0.393
		c0,0-0.084-0.026-0.084-0.081v-3.69c0,0,0.025-0.083,0.084-0.083h0.281l2.336,2.563c0.141,0.168,0.28,0.363,0.28,0.363v-2.843
		c0,0,0.031-0.083,0.087-0.083h0.396c0,0,0.082,0.029,0.082,0.083v3.69c0,0-0.025,0.081-0.082,0.081h-0.282L372.195,59.378z"/>
	<path fill="#939598" d="M381.428,60.082c0,1.237-0.871,1.972-1.941,1.972c-1.071,0-1.943-0.733-1.943-1.972
		c0-1.237,0.872-1.971,1.943-1.971C380.557,58.111,381.428,58.845,381.428,60.082z M378.102,60.082c0,0.929,0.651,1.491,1.41,1.491
		s1.407-0.563,1.407-1.491c0-0.928-0.618-1.491-1.407-1.491C378.725,58.591,378.102,59.153,378.102,60.082z"/>
	<path fill="#939598" d="M384.581,61.517h1.973c0,0,0.081,0.057,0.081,0.086v0.311c0,0-0.053,0.084-0.081,0.084h-2.421
		c0,0-0.086-0.029-0.086-0.084v-3.689c0,0,0.028-0.082,0.086-0.082h0.396c0,0,0.081,0.027,0.081,0.082v3.267L384.581,61.517z"/>
	<path fill="#939598" d="M392.548,60.082c0,1.237-0.874,1.972-1.943,1.972c-1.066,0-1.942-0.733-1.942-1.972
		c0-1.237,0.876-1.971,1.942-1.971C391.674,58.111,392.548,58.845,392.548,60.082z M389.224,60.082c0,0.929,0.647,1.491,1.409,1.491
		c0.761,0,1.407-0.563,1.407-1.491c0-0.928-0.618-1.491-1.407-1.491C389.847,58.591,389.224,59.153,389.224,60.082z"/>
	<path fill="#939598" d="M398.658,60.335c0,0.959-0.589,1.719-1.829,1.719c-1.07,0-1.858-0.733-1.858-1.972
		c0-1.237,0.819-1.971,1.858-1.971c1.183,0,1.689,0.788,1.689,1.407c0,0.029,0,0.058-0.087,0.058h-0.362c0,0-0.059,0-0.059-0.058
		c-0.058-0.422-0.364-0.93-1.183-0.93c-0.761,0-1.353,0.563-1.353,1.492c0,0.93,0.592,1.491,1.353,1.491
		c0.845,0,1.268-0.505,1.268-0.983h-1.521c0,0-0.082-0.056-0.082-0.084v-0.312c0,0,0.056-0.084,0.082-0.084h2.083V60.335z"/>
	<path fill="#939598" d="M400.631,58.252c0,0,0-0.028,0-0.054c0,0,0-0.029,0.026-0.029h0.452c0,0,0.083,0,0.141,0.083l0.9,1.267
		c0.142,0.168,0.254,0.395,0.254,0.395h0.026c0,0,0.142-0.227,0.253-0.395l0.9-1.267c0,0,0.086-0.083,0.144-0.083h0.45
		c0,0,0.028,0,0.028,0.029c0,0,0,0,0,0.054l-1.522,2.14v1.521c0,0-0.028,0.084-0.082,0.084h-0.396c0,0-0.084-0.029-0.084-0.084
		v-1.521l-1.521-2.14H400.631z"/>
	<path fill="#939598" d="M316.254,26.214l-8.756,18.777l-10.277-21.987h-7.487l14.724,31.167h6.083l14.695-31.167h-4.168
		C319.013,23.004,317.154,24.242,316.254,26.214z"/>
	<path fill="#939598" d="M327.29,27.452v26.747h6.927V23.031h-2.787C329.148,23.031,327.29,25.001,327.29,27.452z"/>
	<path fill="#939598" d="M363.018,23.031c-1.745,0-3.405,0.845-4.53,2.281l-5.942,7.742l-7.74-10.023h-8.532l11.994,15.54
		l-11.994,15.628h6.081c1.522,0,2.982-0.731,3.941-2.001l6.224-8.078l7.771,10.079h8.446l-11.995-15.628l11.995-15.54h-5.773
		H363.018z"/>
	<path fill="#939598" d="M403.616,33.393c0,0,0-10.361-7.575-10.361h-25.198v31.168h6.927V41.53h6.614
		c1.212,0,2.368,0.589,3.099,1.604l5.126,7.46c1.55,2.28,4.023,3.604,6.673,3.604h4.223l-7.574-10.531
		C403.616,43.668,403.616,33.393,403.616,33.393z M377.769,36.208v-5.687h17.201c1.212,0,1.212,2.899,1.212,2.899
		s0,2.844-1.184,2.814h-17.256L377.769,36.208z"/>
	<g>
		<g>
			<path d="M261.479,10.064c0.019,0,0.035,0,0.05,0c0,13.95,0,28.54,0,42.429c0,2.384-0.086,4.721,0.822,6.234
				c0.674,1.115,1.849,1.707,3.19,2.096c0.313,0.089,1.226,0.145,1.353,0.438c0.11,0.246-0.077,0.595,0,0.922
				c-3.199,0.091-6.553,0.045-9.874,0.045c-3.085,0-6.344,0.14-9.345,0c-0.121-0.002-0.459,0.119-0.481-0.141
				c0.038-0.311-0.062-0.746,0.049-0.975c1.536-0.275,3.06-0.771,4.02-1.707c1.034-1.014,1.305-2.936,1.305-5.214
				c0.004-11.069,0-21.932,0-32.874c0-2.337,0.133-4.486-0.672-5.893c-0.808-1.393-2.713-1.771-4.801-1.754
				c-0.024-0.396-0.076-0.759-0.139-1.119C251.787,11.71,256.675,10.932,261.479,10.064z"/>
			<path d="M6.866,62.232c0-0.392,0-0.775,0-1.169c2.519-0.407,4.905-1.373,6.249-3.266c1.252-1.77,2.084-4.287,2.953-6.527
				c4.893-12.61,9.814-25.038,14.669-37.604c0.451-1.171,0.821-2.414,1.353-3.409c0.044-0.078,0.01-0.183,0.147-0.148
				c1.162,0,2.323,0,3.486,0c0.012,0.057,0.052,0.079,0.097,0.099c5.317,13.439,10.674,26.679,16.024,40.136
				c0.838,2.104,1.652,4.526,2.81,6.582c0.522,0.924,1.201,1.83,2.13,2.527c0.887,0.666,2.078,1.357,3.242,1.459
				c0.598,0.053,1.646-0.48,2.083-0.734c1.862-1.069,2.37-3.019,2.37-5.791c0-3.406,0-7.614,0-10.963
				c0-3.86,0.209-7.459-0.046-10.913c-0.21-2.86-1.141-4.119-3.242-4.918c-0.495-0.188-1.809-0.307-1.984-0.78
				c-0.476-1.266,2.247-0.875,3.146-0.875c2.681,0,4.813,0,7.355,0c1.057,0,3.117-0.229,3.536,0.195
				c0.316,0.318,0.191,1.504,0.191,2.289c0,1.626,0,2.661,0,4.284c0,1.074-0.061,1.591,0.482,1.658
				c0.697,0.084,0.781-0.761,1.164-1.461c1.579-2.894,3.627-5.236,6.729-6.527c1.666-0.691,5.4-1.639,5.763,0.782
				c0.074,0.5-0.098,1.25-0.194,1.853c-0.222,1.354-0.361,2.359-0.58,3.749c-0.079,0.495-0.191,1.513-0.534,1.653
				c-0.302,0.132-0.754-0.12-1.112-0.241c-0.411-0.142-0.828-0.22-1.159-0.296c-2.937-0.651-5.04,0.365-6.634,1.71
				c-2.162,1.82-3.414,4.432-3.876,7.842c-0.26,1.912-0.045,3.954-0.045,5.794c0,1.919-0.012,3.859,0,5.894
				c0.017,3.143,1.046,4.639,3.245,5.504c0.653,0.264,1.938,0.258,1.984,0.977c0.052,0.787-1.006,0.64-1.938,0.64
				c-12.619,0-24.709,0-37.18,0c0-0.396,0-0.777,0-1.173c2.083-0.404,4.128-0.701,4.501-2.678c0.373-1.978-0.775-4.076-1.401-5.648
				c-4.169-10.392-8.22-20.887-12.396-31.076c-4.21,10.768-8.631,22.079-12.88,33.027c-0.607,1.562-1.063,3.968,0.147,5.063
				c0.863,0.794,2.464,1.002,3.775,1.366c0,0.374,0,0.746,0,1.119C16.485,62.232,11.675,62.232,6.866,62.232z"/>
			<path d="M102.048,15.474c0.422,0,0.838,0,1.259,0c0,3.425,0,6.854,0,10.278c3.312,0,6.617,0,9.922,0c0,0.859,0,1.72,0,2.581
				c-3.306,0-6.611,0-9.922,0c0.263,5.054-0.19,10.861,0.049,16.366c0.116,2.654-0.229,5.678,0.243,7.944
				c0.456,2.195,1.642,3.979,3.97,4.187c2.136,0.191,3.632-0.741,4.794-1.608c0.38-0.291,0.744-0.789,1.354-0.338
				c0.027,0.338-0.255,0.809-0.488,1.215c-1.543,2.707-3.865,5.111-7.453,5.791c-4.9,0.941-8.508-1.199-10.169-4.523
				c-1.701-3.398-1.258-8.837-1.258-13.879c0-5.108,0-10.162,0-15.151c-1.745,0-3.484,0-5.229,0c0-0.405,0-0.814,0-1.218
				C95.327,25.142,99.284,20.906,102.048,15.474z"/>
			<path d="M211.225,42.896c-3.94,0-7.877,0-11.815,0c0-0.484,0-0.974,0-1.462c1.365-0.27,2.521-1.146,2.714-2.676
				c0.132-1.031-0.18-2.199-0.387-3.169c-0.585-2.762-1.472-5.705-3.486-7.063c-1.424-0.956-3.636-0.935-5.089,0.049
				c-2.723,1.847-4.038,6.74-4.401,10.913c-0.69,7.654,1.481,14.011,6.292,16.509c1.752,0.921,3.906,1.364,6.393,1.023
				c3.816-0.518,6.541-2.523,8.52-4.872c0.168-0.196,0.226-0.405,0.438-0.435c0.257-0.039,0.394,0.133,0.773,0.142
				c-0.955,2.959-2.717,5.079-4.835,6.872c-2.137,1.805-4.793,3.113-8.326,3.406c-7.333,0.604-12.672-2.732-15.733-7.552
				c-1.56-2.448-2.54-5.317-2.814-8.962c-0.286-3.84,0.299-7.353,1.453-10.229c2.161-5.367,6.781-9.462,13.848-9.84
				c5.759-0.31,9.588,1.729,12.248,4.628C209.759,33.164,211.172,37.326,211.225,42.896z"/>
			<path d="M131.002,25.65c5.796-0.346,10.441,1.877,13.412,4.678c3.041,2.867,5.318,6.86,5.566,12.517
				c0.27,6.122-1.728,10.305-4.554,13.545c-2.725,3.123-6.739,5.597-12.1,5.939c-5.719,0.376-10.333-1.84-13.413-4.683
				c-3.017-2.773-5.326-6.939-5.615-12.468c-0.328-6.188,1.641-10.595,4.357-13.735c2.027-2.351,4.754-4.204,8.375-5.164
				C128.322,25.94,129.657,25.729,131.002,25.65z M125.915,32.908c-0.979,2.567-1.515,5.154-1.743,8.669
				c-0.226,3.479,0.042,6.691,0.679,9.648c0.624,2.897,1.522,5.668,3.147,7.307c1.6,1.609,4.852,2.254,7.166,0.777
				c1.896-1.207,2.949-3.601,3.728-6.088c1.521-4.858,1.818-12.137,0.436-17.386c-1.008-3.82-2.819-8.546-7.99-7.988
				C128.163,28.184,126.761,30.703,125.915,32.908z"/>
			<path d="M177.477,34.47c-1.393-0.153-2.335-0.699-3.487-0.782c-3.162-0.233-5.13,1.17-6.635,2.924
				c-1.243,1.45-2.147,3.387-2.616,5.555c-0.69,3.264-0.336,8.112-0.336,11.979c0,1.751,0.126,3.525,0.822,4.683
				c0.861,1.423,2.711,1.956,4.459,2.292c0,0.373,0,0.743,0,1.112c-6.521,0-13.039,0-19.563,0c0-0.374,0-0.745,0-1.112
				c1.882-0.334,3.766-0.979,4.603-2.438c0.813-1.426,0.727-4.176,0.727-6.819c0-4.884,0-10.156,0-15.102
				c0-3.048,0.236-6.155-1.109-7.743c-0.927-1.095-2.616-1.672-4.219-1.949c0.029-0.362-0.051-0.835,0.046-1.122
				c4.741,0,9.491,0,14.232,0c0,3.769,0,7.536,0,11.296c1.677-5.626,5.054-10.848,11.428-11.586c1.437-0.17,2.548,0.219,2.759,1.458
				c0.093,0.546-0.133,1.249-0.24,1.903C178.089,30.672,177.778,33.025,177.477,34.47z"/>
			<path d="M246.177,57.798c-0.726,2.192-2.562,3.893-5.13,4.332c-3.618,0.625-6.392-1.426-6.777-4.721
				c-2.415,2.869-5.987,5.534-11.477,4.822c-4.397-0.574-7.938-3.621-8.57-8.04c-0.789-5.548,2.313-8.884,5.72-10.718
				c3.572-1.924,9.181-2.405,14.229-1.561c0.073-3.115,0.301-6.174-0.728-8.136c-0.965-1.838-2.972-3.064-5.521-3.361
				c-5.731-0.666-9.414,2.547-11.813,5.793c-0.365-0.09-0.72-0.18-1.063-0.291c0.99-2.938,2.766-5.232,4.983-7.013
				c2.25-1.799,5.233-3.12,8.859-3.311c3.886-0.208,7.032,0.794,9.396,2.386c2.294,1.544,4.147,3.867,4.693,7.109
				c0.298,1.743,0.146,3.85,0.146,5.798c0,3.943,0,7.788,0,11.83c0,1.741-0.229,4.539,0.968,4.926
				C244.987,57.94,245.656,57.128,246.177,57.798z M227.782,44.258c-2.966,0.968-5.227,3.396-5.227,7.158
				c0,4.259,2.645,7.606,7.164,6.619c1.025-0.22,1.805-0.591,2.616-1.169c0.537-0.38,1.735-1.271,1.887-1.943
				c0.181-0.799,0-1.884,0-2.781c0-2.905,0-5.426,0-8.327C231.963,43.562,229.551,43.68,227.782,44.258z"/>
		</g>
		<g>
			<polygon fill="#231F20" points="261.961,5.678 263.704,5.678 263.704,10.172 264.398,10.172 264.398,5.678 266.137,5.678 
				266.137,5.041 261.961,5.041 			"/>
			<polygon fill="#231F20" points="271.468,5.041 269.462,8.338 267.453,5.041 266.968,5.041 266.968,10.172 267.662,10.172 
				267.662,6.561 269.223,9.119 269.707,9.119 271.259,6.573 271.259,10.172 271.953,10.172 271.953,5.041 			"/>
		</g>
	</g>
</g>
</svg>
